<svg xmlns="http://www.w3.org/2000/svg" viewBox="0 0 1440 1600" fill="none">
  <rect width="1440" height="1600" fill="#F5EEFB"/>
  <circle cx="720" cy="420" r="320" fill="#E7D5F4"/>
  <circle cx="1040" cy="1240" r="260" fill="#EFE2F7"/>
  <circle cx="300" cy="1180" r="220" fill="#EDE0F7"/>
  <rect x="344" y="496" width="752" height="560" rx="48" fill="#FFF9FF"/>
  <rect x="682" y="496" width="76" height="560" rx="38" fill="#E8D7F4"/>
  <rect x="344" y="734" width="752" height="84" rx="42" fill="#E8D7F4"/>
  <path d="M720 496C720 402 778 340 850 340C908 340 948 384 948 436C948 492 904 530 848 530H720V496Z" fill="#F0E1F8"/>
  <path d="M720 496C720 402 662 340 590 340C532 340 492 384 492 436C492 492 536 530 592 530H720V496Z" fill="#F0E1F8"/>
</svg>
